<svg version="1" xmlns="http://www.w3.org/2000/svg" width="1333.333" height="1333.333" viewBox="0 0 1000.000000 1000.000000"><path d="M0 500v500h1000V0H0v500zm287.9-161.3c27.2 67.6 63.6 158.3 81 201.6l31.6 78.8.3-201.5.2-201.6h82v539l-58.6-.2-58.7-.3-39.1-94.5c-21.5-52-54.9-132.6-74.1-179.2l-35-84.6-.3 179.4L217 755h-81V216h102.6l49.3 122.7zM674 431.5l36.6 215h10.8l41.6-215 41.6-215 47.3-.3 47.3-.2-.6 3.2c-.3 1.8-12.5 55-27.1 118.3-14.6 63.2-42.1 183.1-61.2 266.3L775.5 755l-63.5-.2-63.5-.3L615.8 600C545.6 268.6 535 218.3 535 217.2c0-.9 12.5-1.2 51.2-1l51.2.3 36.6 215z"/></svg>