<?xml version="1.0" standalone="no"?>
<!DOCTYPE svg PUBLIC "-//W3C//DTD SVG 20010904//EN"
 "http://www.w3.org/TR/2001/REC-SVG-20010904/DTD/svg10.dtd">
<svg version="1.0" xmlns="http://www.w3.org/2000/svg"
 width="260.000000pt" height="260.000000pt" viewBox="0 0 260.000000 260.000000"
 preserveAspectRatio="xMidYMid meet">
<metadata>
Created by potrace 1.11, written by Peter Selinger 2001-2013
</metadata>
<g transform="translate(0.000000,260.000000) scale(0.100000,-0.100000)"
fill="#000000" stroke="none">
<path d="M121 2479 l-61 -61 0 -1119 0 -1120 61 -59 62 -60 1117 0 1117 0 29
25 c36 31 38 33 69 69 l25 29 0 1117 0 1117 -60 62 -59 61 -1120 0 -1119 0
-61 -61z m604 -1051 l300 -447 5 447 5 447 75 0 75 0 3 -582 2 -583 -84 0 -85
0 -298 446 -298 446 -3 -446 -2 -446 -80 0 -80 0 0 578 c0 318 3 582 7 586 4
4 41 5 83 4 l75 -3 300 -447z m785 395 c51 -138 329 -921 336 -946 6 -25 11
-14 45 85 21 62 105 293 187 513 l148 400 82 3 c45 2 82 0 82 -3 0 -3 -85
-220 -189 -483 -103 -262 -206 -523 -227 -579 l-39 -103 -82 0 -82 0 -19 53
c-11 28 -59 151 -107 272 -97 246 -325 836 -325 841 0 2 38 4 84 4 l85 0 21
-57z"/>
</g>
</svg>
